<?xml version="1.0" encoding="UTF-8" standalone="no"?>
<!-- Created with Inkscape (http://www.inkscape.org/) -->

<svg
   width="100mm"
   height="100mm"
   viewBox="0 0 100 100"
   version="1.1"
   id="svg5"
   inkscape:version="1.1.1 (3bf5ae0d25, 2021-09-20, custom)"
   sodipodi:docname="arrowPressedLeft.svg"
   inkscape:export-filename="/home/hdert/Documents/repos/godot_tutorial_result/start-assets/arrowPressedLeft.png"
   inkscape:export-xdpi="96"
   inkscape:export-ydpi="96"
   xmlns:inkscape="http://www.inkscape.org/namespaces/inkscape"
   xmlns:sodipodi="http://sodipodi.sourceforge.net/DTD/sodipodi-0.dtd"
   xmlns="http://www.w3.org/2000/svg"
   xmlns:svg="http://www.w3.org/2000/svg">
  <sodipodi:namedview
     id="namedview7"
     pagecolor="#505050"
     bordercolor="#ffffff"
     borderopacity="1"
     inkscape:pageshadow="0"
     inkscape:pageopacity="0"
     inkscape:pagecheckerboard="1"
     inkscape:document-units="mm"
     showgrid="false"
     width="100mm"
     inkscape:snap-nodes="false"
     inkscape:zoom="1.2580294"
     inkscape:cx="110.88771"
     inkscape:cy="238.46819"
     inkscape:window-width="1920"
     inkscape:window-height="1080"
     inkscape:window-x="0"
     inkscape:window-y="0"
     inkscape:window-maximized="1"
     inkscape:current-layer="layer1" />
  <defs
     id="defs2" />
  <g
     inkscape:label="Layer 1"
     inkscape:groupmode="layer"
     id="layer1">
    <g
       id="g1033"
       transform="rotate(180,50.009361,50.041215)">
      <g
         id="g416"
         transform="matrix(1.3322803,0,0,1.3322803,-20.735934,-15.627755)"
         style="fill:#4d4d4d">
        <rect
           id="rect31"
           width="45.955429"
           height="13.391152"
           x="19.021124"
           y="41.849884"
           style="fill:#4d4d4d;stroke-width:0.188449"
           ry="4.9901705" />
        <path
           sodipodi:type="star"
           id="path231"
           inkscape:flatsided="true"
           sodipodi:sides="3"
           sodipodi:cx="287.00192"
           sodipodi:cy="130.0266"
           sodipodi:r1="86.523262"
           sodipodi:r2="43.261631"
           sodipodi:arg1="2.0943951"
           sodipodi:arg2="3.1415927"
           inkscape:rounded="0.19173506"
           inkscape:randomized="0"
           transform="matrix(0.17698632,0,0,0.20065395,20.016516,23.200501)"
           inkscape:transform-center-x="-3.8283572"
           d="m 243.74029,204.95794 c -24.88431,-14.36697 -24.88431,-135.495721 0,-149.862687 24.88432,-14.366965 129.78489,46.197407 129.78489,74.931347 0,28.73393 -104.90057,89.2983 -129.78489,74.93134 z"
           style="fill:#4d4d4d" />
      </g>
      <path
         style="fill:#cccccc;stroke-width:0.794894"
         d="m 236.76198,280.14471 c -10.03948,-3.09067 -16.80129,-20.18418 -20.96204,-52.99093 l -0.47724,-3.76293 -93.15453,-0.21154 -93.15454,-0.21155 -4.528112,-2.12251 C 18.718642,218.14208 13.622127,213.04556 10.66685,207.02658 l -2.3204632,-4.72606 v -16.69278 -16.69277 l 2.2889152,-4.95562 c 2.767768,-5.99235 8.262824,-11.39281 14.627967,-14.37616 l 4.545255,-2.13036 93.168866,-0.21772 93.16886,-0.21772 0.41992,-2.56441 c 0.23096,-1.41042 0.8004,-4.88947 1.26542,-7.73121 2.23839,-13.67867 7.60541,-28.52677 12.324,-34.09483 1.25682,-1.48309 3.73074,-3.353171 5.49759,-4.155741 24.22745,-11.005001 111.49486,42.122941 131.1469,79.841531 6.69924,12.85803 2.07077,24.37435 -17.81088,44.31603 -18.38866,18.44418 -40.54414,34.02245 -65.6095,46.13229 -13.34165,6.44576 -22.89506,9.8647 -32.00228,11.45287 -8.1178,1.41562 -9.81837,1.40757 -14.61544,-0.0692 z m 28.28864,-15.79594 c 23.03181,-7.72424 51.54416,-25.57911 71.07397,-44.50764 24.89565,-24.12914 25.30888,-36.50693 1.992,-59.66687 -25.94656,-25.77193 -67.52616,-48.79237 -88.48832,-48.99134 -9.37583,-0.089 -12.34715,1.79342 -16.83539,10.66565 -2.33229,4.61042 -5.68143,16.11253 -6.64528,22.82213 -0.28262,1.96737 -0.68841,4.1959 -0.90178,4.95229 -0.36451,1.29226 -6.05865,1.38822 -94.33559,1.58979 -107.612505,0.24573 -98.177613,-0.43878 -106.339959,7.71496 -6.550946,6.54404 -7.4821,9.81934 -7.472017,26.28256 0.0049,8.05533 0.38436,14.36066 0.983409,16.34236 2.266969,7.49927 8.617901,13.9373 16.325281,16.54915 3.421834,1.15958 13.122684,1.28893 96.668066,1.28893 h 92.86454 l 1.35501,8.94256 c 1.86217,12.28959 4.08181,20.65044 7.22763,27.22472 3.16376,6.61178 3.9212,7.60381 7.54985,9.88805 2.49581,1.57112 3.5499,1.70696 10.71701,1.38114 5.75131,-0.26146 9.69419,-0.94667 14.26157,-2.47844 z"
         id="path632"
         transform="scale(0.26458333)" />
    </g>
    <path
       style="fill:#cccccc;stroke-width:0.794894"
       d=""
       id="path708"
       transform="scale(0.26458333)" />
  </g>
</svg>
